# xmcd CD database file
# Copyright (C) 1993-1998 Ti Kan
#
# Track frame offsets:
#     150
#     12255
#     24957
#     40985
#     57560
#     73902
#     89625
#     104025
#     115985
#     132080
#     149432
#     161255
#     177365
#     190132
#     202825
#     224420
#     240045
#     252810
#     264972
#     277590
#
# Disc length: 3884 seconds
#
# Revision: 0
# Processed by: cddbd v1.4b41PL1 Copyright (c) Steve Scherf et al.
# Submitted via: Clarion 0.9.3
#
DISCID=180f2a14
DTITLE=Bob Bernstein - Cowboy Bob
DYEAR=1900
DGENRE=
TTITLE0=Does It Work for You
TTITLE1=Please Take Me Back
TTITLE2=Sold My Horse Today
TTITLE3=Country Mobile Home Park Song
TTITLE4=Things That Might Have Been
TTITLE5=Don't Thank Me For The Flowers
TTITLE6=Leaving Is All There Is Left To Do
TTITLE7=Sometimes
TTITLE8=It Won't Be Long
TTITLE9=Women Are Where You Find Them
TTITLE10=I Had To Say
TTITLE11=Your Heart Belongs To Me
TTITLE12=I Really Do Love You
TTITLE13=You Were Mine For All Time For Awhile
TTITLE14=A Robot's Gonna Buy My House
TTITLE15=Remember I Love You
TTITLE16=I Wish I Could Say (I Didn't Love You)
TTITLE17=Thank You Judge
TTITLE18=The Corporation Song
TTITLE19=Welcome Back Heartache
EXTD=
EXTT0=
EXTT1=
EXTT2=
EXTT3=
EXTT4=
EXTT5=
EXTT6=
EXTT7=
EXTT8=
EXTT9=
EXTT10=
EXTT11=
EXTT12=
EXTT13=
EXTT14=
EXTT15=
EXTT16=
EXTT17=
EXTT18=
EXTT19=
PLAYORDER=
